# xmcd CD database file
#
# Track frame offsets:
#	150
#	22445
#	35000
#	48390
#	64990
#	79590
#	100290
#	136012
#	156867
#	174142
#	192575
#	218750
#	230480
#	283595
#	306215
#
# Disc length: 4262 seconds
#
# Revision: 0
# Processed by: cddbd v1.5.2PL0 Copyright (c) Steve Scherf et al.
# Submitted via: CDex 1.51
#
DISCID=d410a40f
DTITLE=Duke Ellington - All Star Road Band, vol. 1
DYEAR=1957
DGENRE=Jazz
TTITLE0=Take The A Train
TTITLE1=Take The A Train (Ray Nance vocal)
TTITLE2=Such Sweet Thunder
TTITLE3=Frustration
TTITLE4=Cop Out
TTITLE5=Perdidio
TTITLE6=Mood Indigo
TTITLE7=Bassment
TTITLE8=Sophisticated Lady
TTITLE9=Stardust
TTITLE10=Jeep's Blues
TTITLE11=All Of Me
TTITLE12=Diminuendo And Crescendo In Blue
TTITLE13=I Got It Bad
TTITLE14=On The Sunny Side Of The Street
EXTD=YEAR: 1957
EXTT0=
EXTT1=
EXTT2=
EXTT3=
EXTT4=
EXTT5=
EXTT6=
EXTT7=
EXTT8=
EXTT9=
EXTT10=
EXTT11=
EXTT12=
EXTT13=
EXTT14=
PLAYORDER=
